#N canvas 210 69 994 551 10;
#X obj 10 10 cnv 15 600 40 empty empty empty 20 12 0 14 #e0e0e0 #404040 0;
#X text 8 64 Description: #X text 10 110 "rtmpstreamer~" is a Pure Data external for streaming audio via RTMP to a remote server. If a valid RTMP URL is provided;
#X obj 336 308 rtmpstreamer~;
#X msg 488 255 rtmp://your-server-url;
#X text 471 285 <-- Send a valid RTMP URL to this inlet;
#X obj 337 278 osc~ 440;
#X text 25 309 Audio Input: connect an audio source to this inlet;
#X obj 234 355 dac~;
#X text 352 334 <-- Connect to the output to hear audio;
#X obj 316 250 metro 100;
#X text 10 174 Inlets: - Left Inlet (Signal): Audio input - Right Inlet (Symbol): RTMP URL (string) #X text 10 230 Outlets: - Left Outlet: Audio output (processed signal) #X text 10 250;
#X text 21 22 rtmpstreamer~ Help;
#X obj 295 226 loadbang;
#X connect 2 0 7 0;
#X connect 3 0 2 1;
#X connect 5 0 2 0;
#X connect 9 0 5 0;
#X connect 12 0 9 0;
